# xmcd
#
# Track frame offsets:
#	150
#	6354
#	20980
#	26616
#	53611
#	70381
#	83478
#	90726
#	123198
#	132492
#	162285
#	181089
#
# Disc length: 2656 seconds
#
# Revision: 1
# Processed by: cddbd v1.5.1PL0 Copyright (c) Steve Scherf et al.
# Submitted via: CDex 1.50Beta5
#
DISCID=960a5e0c
DTITLE=UI-70 - ECLIPSE/ONE
DYEAR=1900
DGENRE=GAME
TTITLE0=オンユアマーク
TTITLE1=8匹のネコ
TTITLE2=乙女希望
TTITLE3=追想
TTITLE4=雪のように白く
TTITLE5=海鳴り
TTITLE6=輝く季節へ 第一章
TTITLE7=永遠
TTITLE8=A Tair
TTITLE9=雨
TTITLE10=輝く季節へ 第二章
TTITLE11=遠いまなざし
EXTD=
EXTT0=
EXTT1=
EXTT2=
EXTT3=
EXTT4=
EXTT5=
EXTT6=
EXTT7=
EXTT8=
EXTT9=
EXTT10=
EXTT11=
PLAYORDER=
